<?xml version="1.0" encoding="UTF-8"?>
<svg xmlns="http://www.w3.org/2000/svg" viewBox="0 0 572 736" width="572" height="736" font-family="Inter, ui-sans-serif, system-ui, sans-serif">
<title>PM Craft — mindmap (dogfood for /diagram --mode mindmap)</title>
<rect class="bg" x="0" y="0" width="572" height="736" fill="#FFFFFF"/>
<path d="M 166 384 C 196 384, 196 124, 222 124" fill="none" stroke="#57534E" stroke-width="1.5"/>
<path d="M 354 124 C 384 124, 384 52, 410 52" fill="none" stroke="#57534E" stroke-width="1.5"/>
<path d="M 354 124 C 384 124, 384 124, 410 124" fill="none" stroke="#57534E" stroke-width="1.5"/>
<path d="M 354 124 C 384 124, 384 192, 410 192" fill="none" stroke="#57534E" stroke-width="1.5"/>
<path d="M 166 384 C 196 384, 196 332, 222 332" fill="none" stroke="#57534E" stroke-width="1.5"/>
<path d="M 354 332 C 384 332, 384 264, 410 264" fill="none" stroke="#57534E" stroke-width="1.5"/>
<path d="M 354 332 C 384 332, 384 332, 410 332" fill="none" stroke="#57534E" stroke-width="1.5"/>
<path d="M 354 332 C 384 332, 384 404, 410 404" fill="none" stroke="#57534E" stroke-width="1.5"/>
<path d="M 166 384 C 196 384, 196 508, 222 508" fill="none" stroke="#57534E" stroke-width="1.5"/>
<path d="M 354 508 C 384 508, 384 472, 410 472" fill="none" stroke="#57534E" stroke-width="1.5"/>
<path d="M 354 508 C 384 508, 384 544, 410 544" fill="none" stroke="#57534E" stroke-width="1.5"/>
<path d="M 166 384 C 196 384, 196 648, 222 648" fill="none" stroke="#57534E" stroke-width="1.5"/>
<path d="M 354 648 C 384 648, 384 612, 410 612" fill="none" stroke="#57534E" stroke-width="1.5"/>
<path d="M 354 648 C 384 648, 384 684, 410 684" fill="none" stroke="#57534E" stroke-width="1.5"/>
<g data-anchor="pm">
<rect x="34" y="364" width="132" height="40" rx="8" fill="#F6F5F3" stroke="#C2410C" stroke-width="2.5"/>
<text x="100" y="388" font-size="13" text-anchor="middle" fill="#1C1917">PM Craft</text>
</g>
<g data-anchor="disc">
<rect x="222" y="104" width="132" height="40" rx="8" fill="#F6F5F3" stroke="#1C1917" stroke-width="1.5"/>
<text x="288" y="128" font-size="13" text-anchor="middle" fill="#1C1917">Discovery</text>
</g>
<g data-anchor="res">
<rect x="410" y="32" width="132" height="40" rx="8" fill="#F6F5F3" stroke="#1C1917" stroke-width="1.5"/>
<text x="476" y="56" font-size="13" text-anchor="middle" fill="#1C1917">User research</text>
</g>
<g data-anchor="jtbd">
<rect x="410" y="104" width="132" height="40" rx="8" fill="#F6F5F3" stroke="#1C1917" stroke-width="1.5"/>
<text x="476" y="128" font-size="13" text-anchor="middle" fill="#1C1917">JTBD</text>
</g>
<g data-anchor="mkt">
<rect x="410" y="172" width="132" height="40" rx="8" fill="#F6F5F3" stroke="#1C1917" stroke-width="1.5"/>
<text x="476" y="196" font-size="13" text-anchor="middle" fill="#1C1917">Market sizing</text>
</g>
<g data-anchor="deliv">
<rect x="222" y="312" width="132" height="40" rx="8" fill="#F6F5F3" stroke="#1C1917" stroke-width="1.5"/>
<text x="288" y="336" font-size="13" text-anchor="middle" fill="#1C1917">Delivery</text>
</g>
<g data-anchor="spec">
<rect x="410" y="244" width="132" height="40" rx="8" fill="#F6F5F3" stroke="#1C1917" stroke-width="1.5"/>
<text x="476" y="268" font-size="13" text-anchor="middle" fill="#1C1917">Specs</text>
</g>
<g data-anchor="plan">
<rect x="410" y="312" width="132" height="40" rx="8" fill="#F6F5F3" stroke="#1C1917" stroke-width="1.5"/>
<text x="476" y="336" font-size="13" text-anchor="middle" fill="#1C1917">Planning</text>
</g>
<g data-anchor="ship">
<rect x="410" y="384" width="132" height="40" rx="8" fill="#F6F5F3" stroke="#1C1917" stroke-width="1.5"/>
<text x="476" y="408" font-size="13" text-anchor="middle" fill="#1C1917">Shipping</text>
</g>
<g data-anchor="growth">
<rect x="222" y="488" width="132" height="40" rx="8" fill="#F6F5F3" stroke="#1C1917" stroke-width="1.5"/>
<text x="288" y="512" font-size="13" text-anchor="middle" fill="#1C1917">Growth</text>
</g>
<g data-anchor="exp">
<rect x="410" y="452" width="132" height="40" rx="8" fill="#F6F5F3" stroke="#1C1917" stroke-width="1.5"/>
<text x="476" y="476" font-size="13" text-anchor="middle" fill="#1C1917">Experiments</text>
</g>
<g data-anchor="metrics">
<rect x="410" y="524" width="132" height="40" rx="8" fill="#F6F5F3" stroke="#1C1917" stroke-width="1.5"/>
<text x="476" y="548" font-size="13" text-anchor="middle" fill="#1C1917">Metrics</text>
</g>
<g data-anchor="lead">
<rect x="222" y="628" width="132" height="40" rx="8" fill="#F6F5F3" stroke="#1C1917" stroke-width="1.5"/>
<text x="288" y="652" font-size="13" text-anchor="middle" fill="#1C1917">Leadership</text>
</g>
<g data-anchor="comm">
<rect x="410" y="592" width="132" height="40" rx="8" fill="#F6F5F3" stroke="#1C1917" stroke-width="1.5"/>
<text x="476" y="616" font-size="13" text-anchor="middle" fill="#1C1917">Comms</text>
</g>
<g data-anchor="stake">
<rect x="410" y="664" width="132" height="40" rx="8" fill="#F6F5F3" stroke="#1C1917" stroke-width="1.5"/>
<text x="476" y="688" font-size="13" text-anchor="middle" fill="#1C1917">Stakeholders</text>
</g>
</svg>