<?xml version="1.0" encoding="UTF-8"?>
<svg xmlns="http://www.w3.org/2000/svg" viewBox="0 0 856 776" width="856" height="776" font-family="Inter, ui-sans-serif, system-ui, sans-serif">
<title>WCAG 2 at a Glance — mindmap (/summary-tldr --mode mindmap dogfood)</title>
<rect class="bg" x="0" y="0" width="856" height="776" fill="#F4EFE6"/>
<path d="M 428 388 Q 488 388, 488 448 T 548 508" fill="none" stroke="#475569" stroke-width="1.4"/>
<path d="M 548 508 Q 656 508, 656 448 T 764 388" fill="none" stroke="#475569" stroke-width="1.4"/>
<path d="M 548 508 Q 636 508, 636 532 T 720 556" fill="none" stroke="#475569" stroke-width="1.4"/>
<path d="M 548 508 Q 572 508, 572 596 T 596 680" fill="none" stroke="#475569" stroke-width="1.4"/>
<path d="M 548 508 Q 488 508, 488 616 T 428 724" fill="none" stroke="#475569" stroke-width="1.4"/>
<path d="M 428 388 Q 348 388, 348 412 T 264 432" fill="none" stroke="#475569" stroke-width="1.4"/>
<path d="M 264 432 Q 264 432, 264 556 T 260 680" fill="none" stroke="#475569" stroke-width="1.4"/>
<path d="M 264 432 Q 200 432, 200 496 T 136 556" fill="none" stroke="#475569" stroke-width="1.4"/>
<path d="M 264 432 Q 180 432, 180 412 T 92 388" fill="none" stroke="#475569" stroke-width="1.4"/>
<path d="M 264 432 Q 200 432, 200 328 T 136 220" fill="none" stroke="#475569" stroke-width="1.4"/>
<path d="M 428 388 Q 428 388, 428 304 T 428 220" fill="none" stroke="#475569" stroke-width="1.4"/>
<path d="M 428 220 Q 344 220, 344 160 T 260 96" fill="none" stroke="#475569" stroke-width="1.4"/>
<path d="M 428 220 Q 428 220, 428 136 T 428 52" fill="none" stroke="#475569" stroke-width="1.4"/>
<path d="M 428 220 Q 512 220, 512 160 T 596 96" fill="none" stroke="#475569" stroke-width="1.4"/>
<path d="M 428 388 Q 500 388, 500 348 T 572 304" fill="none" stroke="#475569" stroke-width="1.4"/>
<path d="M 572 304 Q 648 304, 648 264 T 720 220" fill="none" stroke="#475569" stroke-width="1.4"/>
<g data-anchor="wcag-2-at-a-glance">
<rect x="362" y="370" width="132" height="36" rx="6" fill="#FBF7EF" stroke="#B8351A" stroke-width="2.5"/>
<text x="428" y="392" font-size="12" text-anchor="middle" fill="#0F172A">WCAG 2 at a Glance</text>
</g>
<g data-anchor="perceivable">
<rect x="482" y="490" width="132" height="36" rx="6" fill="#FBF7EF" stroke="#0F172A" stroke-width="1.3"/>
<text x="548" y="512" font-size="12" text-anchor="middle" fill="#0F172A">Perceivable</text>
</g>
<g data-anchor="text-alternatives">
<rect x="698" y="370" width="132" height="36" rx="6" fill="#FBF7EF" stroke="#0F172A" stroke-width="1.3"/>
<text x="764" y="392" font-size="12" text-anchor="middle" fill="#0F172A">Text alternatives</text>
</g>
<g data-anchor="captions-audio">
<rect x="654" y="538" width="132" height="36" rx="6" fill="#FBF7EF" stroke="#0F172A" stroke-width="1.3"/>
<text x="720" y="560" font-size="12" text-anchor="middle" fill="#0F172A">Captions &amp; audio</text>
</g>
<g data-anchor="adaptable-layout">
<rect x="530" y="662" width="132" height="36" rx="6" fill="#FBF7EF" stroke="#0F172A" stroke-width="1.3"/>
<text x="596" y="684" font-size="12" text-anchor="middle" fill="#0F172A">Adaptable layout</text>
</g>
<g data-anchor="distinguishable-contrast">
<rect x="362" y="706" width="132" height="36" rx="6" fill="#FBF7EF" stroke="#0F172A" stroke-width="1.3"/>
<text x="428" y="728" font-size="12" text-anchor="middle" fill="#0F172A">Distinguishable contrast</text>
</g>
<g data-anchor="operable">
<rect x="198" y="414" width="132" height="36" rx="6" fill="#FBF7EF" stroke="#0F172A" stroke-width="1.3"/>
<text x="264" y="436" font-size="12" text-anchor="middle" fill="#0F172A">Operable</text>
</g>
<g data-anchor="keyboard-accessible">
<rect x="194" y="662" width="132" height="36" rx="6" fill="#FBF7EF" stroke="#0F172A" stroke-width="1.3"/>
<text x="260" y="684" font-size="12" text-anchor="middle" fill="#0F172A">Keyboard accessible</text>
</g>
<g data-anchor="enough-time">
<rect x="70" y="538" width="132" height="36" rx="6" fill="#FBF7EF" stroke="#0F172A" stroke-width="1.3"/>
<text x="136" y="560" font-size="12" text-anchor="middle" fill="#0F172A">Enough time</text>
</g>
<g data-anchor="no-seizures">
<rect x="26" y="370" width="132" height="36" rx="6" fill="#FBF7EF" stroke="#0F172A" stroke-width="1.3"/>
<text x="92" y="392" font-size="12" text-anchor="middle" fill="#0F172A">No seizures</text>
</g>
<g data-anchor="navigable">
<rect x="70" y="202" width="132" height="36" rx="6" fill="#FBF7EF" stroke="#0F172A" stroke-width="1.3"/>
<text x="136" y="224" font-size="12" text-anchor="middle" fill="#0F172A">Navigable</text>
</g>
<g data-anchor="understandable">
<rect x="362" y="202" width="132" height="36" rx="6" fill="#FBF7EF" stroke="#0F172A" stroke-width="1.3"/>
<text x="428" y="224" font-size="12" text-anchor="middle" fill="#0F172A">Understandable</text>
</g>
<g data-anchor="readable">
<rect x="194" y="78" width="132" height="36" rx="6" fill="#FBF7EF" stroke="#0F172A" stroke-width="1.3"/>
<text x="260" y="100" font-size="12" text-anchor="middle" fill="#0F172A">Readable</text>
</g>
<g data-anchor="predictable">
<rect x="362" y="34" width="132" height="36" rx="6" fill="#FBF7EF" stroke="#0F172A" stroke-width="1.3"/>
<text x="428" y="56" font-size="12" text-anchor="middle" fill="#0F172A">Predictable</text>
</g>
<g data-anchor="input-assistance">
<rect x="530" y="78" width="132" height="36" rx="6" fill="#FBF7EF" stroke="#0F172A" stroke-width="1.3"/>
<text x="596" y="100" font-size="12" text-anchor="middle" fill="#0F172A">Input assistance</text>
</g>
<g data-anchor="robust">
<rect x="506" y="286" width="132" height="36" rx="6" fill="#FBF7EF" stroke="#0F172A" stroke-width="1.3"/>
<text x="572" y="308" font-size="12" text-anchor="middle" fill="#0F172A">Robust</text>
</g>
<g data-anchor="compatible-with-assistive-tech">
<rect x="654" y="202" width="132" height="36" rx="6" fill="#FBF7EF" stroke="#0F172A" stroke-width="1.3"/>
<text x="720" y="224" font-size="12" text-anchor="middle" fill="#0F172A">Compatible with assistive tech</text>
</g>
</svg>