<svg xmlns="http://www.w3.org/2000/svg" width="375" height="812" viewBox="0 0 375 812">
  <desc>Blank mobile wireframe canvas (375×812) — 8px grid guides + 16px margin rulers, per reference/grid-system.md. Compose primitives on top; delete these guide groups before export if desired.</desc>
  <g data-region="grid" stroke="#e6e6e6" stroke-width="0.5" fill="none">
      <title>8px grid</title>
      <desc>Hairline guides on the 8px lattice; the one sanctioned sub-8 value is this 0.5 stroke width.</desc>
      <line x1="0" y1="0" x2="0" y2="812"/>
      <line x1="8" y1="0" x2="8" y2="812"/>
      <line x1="16" y1="0" x2="16" y2="812"/>
      <line x1="24" y1="0" x2="24" y2="812"/>
      <line x1="32" y1="0" x2="32" y2="812"/>
      <line x1="40" y1="0" x2="40" y2="812"/>
      <line x1="48" y1="0" x2="48" y2="812"/>
      <line x1="56" y1="0" x2="56" y2="812"/>
      <line x1="64" y1="0" x2="64" y2="812"/>
      <line x1="72" y1="0" x2="72" y2="812"/>
      <line x1="80" y1="0" x2="80" y2="812"/>
      <line x1="88" y1="0" x2="88" y2="812"/>
      <line x1="96" y1="0" x2="96" y2="812"/>
      <line x1="104" y1="0" x2="104" y2="812"/>
      <line x1="112" y1="0" x2="112" y2="812"/>
      <line x1="120" y1="0" x2="120" y2="812"/>
      <line x1="128" y1="0" x2="128" y2="812"/>
      <line x1="136" y1="0" x2="136" y2="812"/>
      <line x1="144" y1="0" x2="144" y2="812"/>
      <line x1="152" y1="0" x2="152" y2="812"/>
      <line x1="160" y1="0" x2="160" y2="812"/>
      <line x1="168" y1="0" x2="168" y2="812"/>
      <line x1="176" y1="0" x2="176" y2="812"/>
      <line x1="184" y1="0" x2="184" y2="812"/>
      <line x1="192" y1="0" x2="192" y2="812"/>
      <line x1="200" y1="0" x2="200" y2="812"/>
      <line x1="208" y1="0" x2="208" y2="812"/>
      <line x1="216" y1="0" x2="216" y2="812"/>
      <line x1="224" y1="0" x2="224" y2="812"/>
      <line x1="232" y1="0" x2="232" y2="812"/>
      <line x1="240" y1="0" x2="240" y2="812"/>
      <line x1="248" y1="0" x2="248" y2="812"/>
      <line x1="256" y1="0" x2="256" y2="812"/>
      <line x1="264" y1="0" x2="264" y2="812"/>
      <line x1="272" y1="0" x2="272" y2="812"/>
      <line x1="280" y1="0" x2="280" y2="812"/>
      <line x1="288" y1="0" x2="288" y2="812"/>
      <line x1="296" y1="0" x2="296" y2="812"/>
      <line x1="304" y1="0" x2="304" y2="812"/>
      <line x1="312" y1="0" x2="312" y2="812"/>
      <line x1="320" y1="0" x2="320" y2="812"/>
      <line x1="328" y1="0" x2="328" y2="812"/>
      <line x1="336" y1="0" x2="336" y2="812"/>
      <line x1="344" y1="0" x2="344" y2="812"/>
      <line x1="352" y1="0" x2="352" y2="812"/>
      <line x1="360" y1="0" x2="360" y2="812"/>
      <line x1="368" y1="0" x2="368" y2="812"/>
      <line x1="0" y1="0" x2="375" y2="0"/>
      <line x1="0" y1="8" x2="375" y2="8"/>
      <line x1="0" y1="16" x2="375" y2="16"/>
      <line x1="0" y1="24" x2="375" y2="24"/>
      <line x1="0" y1="32" x2="375" y2="32"/>
      <line x1="0" y1="40" x2="375" y2="40"/>
      <line x1="0" y1="48" x2="375" y2="48"/>
      <line x1="0" y1="56" x2="375" y2="56"/>
      <line x1="0" y1="64" x2="375" y2="64"/>
      <line x1="0" y1="72" x2="375" y2="72"/>
      <line x1="0" y1="80" x2="375" y2="80"/>
      <line x1="0" y1="88" x2="375" y2="88"/>
      <line x1="0" y1="96" x2="375" y2="96"/>
      <line x1="0" y1="104" x2="375" y2="104"/>
      <line x1="0" y1="112" x2="375" y2="112"/>
      <line x1="0" y1="120" x2="375" y2="120"/>
      <line x1="0" y1="128" x2="375" y2="128"/>
      <line x1="0" y1="136" x2="375" y2="136"/>
      <line x1="0" y1="144" x2="375" y2="144"/>
      <line x1="0" y1="152" x2="375" y2="152"/>
      <line x1="0" y1="160" x2="375" y2="160"/>
      <line x1="0" y1="168" x2="375" y2="168"/>
      <line x1="0" y1="176" x2="375" y2="176"/>
      <line x1="0" y1="184" x2="375" y2="184"/>
      <line x1="0" y1="192" x2="375" y2="192"/>
      <line x1="0" y1="200" x2="375" y2="200"/>
      <line x1="0" y1="208" x2="375" y2="208"/>
      <line x1="0" y1="216" x2="375" y2="216"/>
      <line x1="0" y1="224" x2="375" y2="224"/>
      <line x1="0" y1="232" x2="375" y2="232"/>
      <line x1="0" y1="240" x2="375" y2="240"/>
      <line x1="0" y1="248" x2="375" y2="248"/>
      <line x1="0" y1="256" x2="375" y2="256"/>
      <line x1="0" y1="264" x2="375" y2="264"/>
      <line x1="0" y1="272" x2="375" y2="272"/>
      <line x1="0" y1="280" x2="375" y2="280"/>
      <line x1="0" y1="288" x2="375" y2="288"/>
      <line x1="0" y1="296" x2="375" y2="296"/>
      <line x1="0" y1="304" x2="375" y2="304"/>
      <line x1="0" y1="312" x2="375" y2="312"/>
      <line x1="0" y1="320" x2="375" y2="320"/>
      <line x1="0" y1="328" x2="375" y2="328"/>
      <line x1="0" y1="336" x2="375" y2="336"/>
      <line x1="0" y1="344" x2="375" y2="344"/>
      <line x1="0" y1="352" x2="375" y2="352"/>
      <line x1="0" y1="360" x2="375" y2="360"/>
      <line x1="0" y1="368" x2="375" y2="368"/>
      <line x1="0" y1="376" x2="375" y2="376"/>
      <line x1="0" y1="384" x2="375" y2="384"/>
      <line x1="0" y1="392" x2="375" y2="392"/>
      <line x1="0" y1="400" x2="375" y2="400"/>
      <line x1="0" y1="408" x2="375" y2="408"/>
      <line x1="0" y1="416" x2="375" y2="416"/>
      <line x1="0" y1="424" x2="375" y2="424"/>
      <line x1="0" y1="432" x2="375" y2="432"/>
      <line x1="0" y1="440" x2="375" y2="440"/>
      <line x1="0" y1="448" x2="375" y2="448"/>
      <line x1="0" y1="456" x2="375" y2="456"/>
      <line x1="0" y1="464" x2="375" y2="464"/>
      <line x1="0" y1="472" x2="375" y2="472"/>
      <line x1="0" y1="480" x2="375" y2="480"/>
      <line x1="0" y1="488" x2="375" y2="488"/>
      <line x1="0" y1="496" x2="375" y2="496"/>
      <line x1="0" y1="504" x2="375" y2="504"/>
      <line x1="0" y1="512" x2="375" y2="512"/>
      <line x1="0" y1="520" x2="375" y2="520"/>
      <line x1="0" y1="528" x2="375" y2="528"/>
      <line x1="0" y1="536" x2="375" y2="536"/>
      <line x1="0" y1="544" x2="375" y2="544"/>
      <line x1="0" y1="552" x2="375" y2="552"/>
      <line x1="0" y1="560" x2="375" y2="560"/>
      <line x1="0" y1="568" x2="375" y2="568"/>
      <line x1="0" y1="576" x2="375" y2="576"/>
      <line x1="0" y1="584" x2="375" y2="584"/>
      <line x1="0" y1="592" x2="375" y2="592"/>
      <line x1="0" y1="600" x2="375" y2="600"/>
      <line x1="0" y1="608" x2="375" y2="608"/>
      <line x1="0" y1="616" x2="375" y2="616"/>
      <line x1="0" y1="624" x2="375" y2="624"/>
      <line x1="0" y1="632" x2="375" y2="632"/>
      <line x1="0" y1="640" x2="375" y2="640"/>
      <line x1="0" y1="648" x2="375" y2="648"/>
      <line x1="0" y1="656" x2="375" y2="656"/>
      <line x1="0" y1="664" x2="375" y2="664"/>
      <line x1="0" y1="672" x2="375" y2="672"/>
      <line x1="0" y1="680" x2="375" y2="680"/>
      <line x1="0" y1="688" x2="375" y2="688"/>
      <line x1="0" y1="696" x2="375" y2="696"/>
      <line x1="0" y1="704" x2="375" y2="704"/>
      <line x1="0" y1="712" x2="375" y2="712"/>
      <line x1="0" y1="720" x2="375" y2="720"/>
      <line x1="0" y1="728" x2="375" y2="728"/>
      <line x1="0" y1="736" x2="375" y2="736"/>
      <line x1="0" y1="744" x2="375" y2="744"/>
      <line x1="0" y1="752" x2="375" y2="752"/>
      <line x1="0" y1="760" x2="375" y2="760"/>
      <line x1="0" y1="768" x2="375" y2="768"/>
      <line x1="0" y1="776" x2="375" y2="776"/>
      <line x1="0" y1="784" x2="375" y2="784"/>
      <line x1="0" y1="792" x2="375" y2="792"/>
      <line x1="0" y1="800" x2="375" y2="800"/>
      <line x1="0" y1="808" x2="375" y2="808"/>
  </g>
  <g data-region="margins" stroke="#666" stroke-width="1" stroke-dasharray="4 4" fill="none">
      <title>Margin rulers</title>
      <desc>Dashed rulers at the 16px outer margins; content lives inside them.</desc>
      <line x1="16" y1="0" x2="16" y2="812"/>
      <line x1="359" y1="0" x2="359" y2="812"/>
      <line x1="0" y1="16" x2="375" y2="16"/>
      <line x1="0" y1="796" x2="375" y2="796"/>
  </g>
</svg>
